<svg width="2048" height="2048" viewBox="0 0 2048 2048" fill="none" xmlns="http://www.w3.org/2000/svg">
  <g clip-path="url(#clip0_9_3)">
    <path d="M2048 0L7.78224e-05 6.05285e-05L0 2048H2048V0Z" fill="#111827"/>
    <path d="M1408 320H640C463.269 320 320 463.269 320 640V1408C320 1584.73 463.269 1728 640 1728H1408C1584.73 1728 1728 1584.73 1728 1408V640C1728 463.269 1584.73 320 1408 320Z" fill="#007A86"/>
    <path d="M640 1376V640H1008C1158.4 640 1248 729.6 1248 864C1248 998.4 1158.4 1088 1008 1088H832V1376H640ZM832 928H992C1046.4 928 1081.6 902.4 1081.6 864C1081.6 825.6 1046.4 800 992 800H832V928Z" fill="white"/>
    <path opacity="0.9" d="M1264 1408C1126.4 1408 1030.4 1356.8 976 1280L1110.4 1177.6C1145.6 1222.4 1193.6 1251.2 1264 1251.2C1318.4 1251.2 1350.4 1232 1350.4 1200C1350.4 1168 1324.8 1155.2 1235.2 1136C1078.4 1104 1004.8 1036.8 1004.8 915.2C1004.8 787.2 1110.4 704 1264 704C1376 704 1462.4 742.4 1516.8 816L1388.8 918.4C1360 880 1318.4 857.6 1260.8 857.6C1209.6 857.6 1184 876.8 1184 905.6C1184 937.6 1209.6 950.4 1302.4 969.6C1465.6 1004.8 1536 1068.8 1536 1190.4C1536 1328 1427.2 1408 1264 1408Z" fill="#0A0A0A"/>
  </g>
  <defs>
    <clipPath id="clip0_9_3">
      <rect width="2048" height="2048" fill="white"/>
    </clipPath>
  </defs>
</svg>

